<svg width="1741" height="512" viewBox="0 0 1741 512" fill="none" xmlns="http://www.w3.org/2000/svg">
<rect width="1741" height="512" fill="#253642"/>
<g filter="url(#filter0_d_25_2)">
<path d="M455.064 138.361C456.741 137.847 458.221 139.587 457.444 141.16L377.466 302.954C374.917 308.111 368.249 309.586 363.763 305.984L326.867 276.357L302.214 294.222C300.624 295.374 298.498 293.783 299.156 291.933L309.529 262.731L456 140L288.379 245.453L251.246 215.636C245.615 211.114 247.335 202.134 254.24 200.015L455.064 138.361Z" fill="url(#paint0_linear_25_2)"/>
</g>
<g filter="url(#filter1_d_25_2)">
<path d="M477.624 229.68C480.047 228.281 483.118 229.739 483.479 232.513C484.482 240.2 485 248.04 485 256C485 355.411 404.411 436 305 436C263.768 436 225.775 422.134 195.426 398.814C193.21 397.111 193.485 393.727 195.906 392.33L213.976 381.897C215.334 381.113 217.021 381.199 218.312 382.088C242.954 399.062 272.816 409 305 409C389.5 409 458 340.5 458 256C458 251.95 457.84 247.937 457.53 243.967C457.409 242.407 458.179 240.906 459.534 240.124L477.624 229.68ZM305 76C347.093 76 385.811 90.4498 416.466 114.658C418.642 116.377 418.348 119.726 415.946 121.112L397.989 131.48C396.612 132.275 394.897 132.175 393.602 131.253C368.6 113.463 338.022 103 305 103C220.5 103 152 171.5 152 256C152 260.844 152.227 265.636 152.668 270.365C152.816 271.945 152.045 273.476 150.67 274.27L132.696 284.647C130.292 286.035 127.242 284.611 126.847 281.864C125.631 273.418 125 264.782 125 256C125 156.589 205.589 76 305 76Z" fill="url(#paint1_linear_25_2)"/>
</g>
<g filter="url(#filter2_d_25_2)">
<path d="M76.6231 307.437C197.18 299.441 211.228 291.382 267.565 251.375C268.684 250.58 270.233 250.624 271.279 251.514L290.479 267.854C291.829 269.004 291.883 271.08 290.581 272.284C226.982 331.106 129.177 325.001 76.0014 312.744C72.7456 311.994 73.2892 307.658 76.6231 307.437Z" fill="url(#paint2_linear_25_2)"/>
</g>
<g filter="url(#filter3_d_25_2)">
<path d="M131.707 345.465C220.939 336.973 238.508 338.796 282.521 301.679C283.648 300.729 285.326 300.703 286.448 301.658L305.604 317.96C306.908 319.071 307.002 321.07 305.802 322.293C252.62 376.512 177.507 363.386 131.14 351.175C127.94 350.332 128.413 345.779 131.707 345.465Z" fill="url(#paint3_linear_25_2)"/>
</g>
<path d="M547.361 313.902V180.162C547.361 177.369 548.328 174.97 550.262 172.965C552.195 170.96 554.559 169.957 557.352 169.957H639.314C682.641 169.957 704.305 189.938 704.305 229.898C704.305 269.788 682.641 289.732 639.314 289.732H587.859V313.902C587.859 316.695 586.857 319.094 584.852 321.1C582.918 323.033 580.555 324 577.762 324H557.566C554.773 324 552.374 323.033 550.369 321.1C548.364 319.094 547.361 316.695 547.361 313.902ZM587.859 259.332H627.068C639.1 259.332 648.23 257.327 654.461 253.316C660.691 249.234 663.807 241.428 663.807 229.898C663.807 218.297 660.691 210.491 654.461 206.48C648.23 202.398 639.1 200.357 627.068 200.357H587.859V259.332ZM724.178 314.117V180.162C724.178 177.369 725.18 174.97 727.186 172.965C729.191 170.96 731.59 169.957 734.383 169.957H754.363C757.299 169.957 759.734 170.96 761.668 172.965C763.673 174.97 764.676 177.369 764.676 180.162V313.902C764.676 316.695 763.637 319.094 761.561 321.1C759.555 323.033 757.156 324 754.363 324H734.383C731.59 324 729.191 323.069 727.186 321.207C725.18 319.273 724.178 316.91 724.178 314.117ZM795.506 314.117V180.377C795.506 177.441 796.508 174.97 798.514 172.965C800.519 170.96 802.918 169.957 805.711 169.957H825.906C828.699 169.957 831.062 170.96 832.996 172.965C835.001 174.97 836.004 177.441 836.004 180.377V293.6H929.568C932.361 293.6 934.725 294.602 936.658 296.607C938.663 298.613 939.666 301.012 939.666 303.805V313.902C939.666 316.695 938.663 319.094 936.658 321.1C934.725 323.033 932.361 324 929.568 324H805.711C802.918 324 800.519 323.069 798.514 321.207C796.508 319.273 795.506 316.91 795.506 314.117ZM1096.18 308.102C1081.57 320.921 1060.09 327.33 1031.73 327.33C1003.44 327.33 981.954 320.921 967.273 308.102C952.592 295.211 945.252 274.837 945.252 246.979C945.252 219.12 952.592 198.782 967.273 185.963C981.954 173.144 1003.44 166.734 1031.73 166.734C1060.09 166.734 1081.57 173.144 1096.18 185.963C1110.86 198.782 1118.2 219.12 1118.2 246.979C1118.2 274.837 1110.86 295.211 1096.18 308.102ZM1066.85 208.629C1059.62 200.035 1047.91 195.738 1031.73 195.738C1015.61 195.738 1003.9 200.035 996.6 208.629C989.367 217.223 985.75 230.042 985.75 247.086C985.75 264.059 989.367 276.842 996.6 285.436C1003.9 293.958 1015.61 298.219 1031.73 298.219C1047.91 298.219 1059.62 293.958 1066.85 285.436C1074.09 276.842 1077.7 264.059 1077.7 247.086C1077.7 230.042 1074.09 217.223 1066.85 208.629ZM1123.89 190.26V180.162C1123.89 177.226 1124.86 174.791 1126.79 172.857C1128.73 170.924 1131.16 169.957 1134.1 169.957H1270.42C1273.35 169.957 1275.79 170.924 1277.72 172.857C1279.66 174.791 1280.62 177.226 1280.62 180.162V190.26C1280.62 193.196 1279.66 195.631 1277.72 197.564C1275.79 199.426 1273.35 200.357 1270.42 200.357H1222.51V314.117C1222.51 316.91 1221.51 319.273 1219.5 321.207C1217.57 323.069 1215.2 324 1212.41 324H1192.11C1189.31 324 1186.92 323.069 1184.91 321.207C1182.98 319.273 1182.01 316.91 1182.01 314.117V200.357H1134.1C1131.16 200.357 1128.73 199.426 1126.79 197.564C1124.86 195.631 1123.89 193.196 1123.89 190.26ZM1362.69 314.117L1389.66 211.852C1396.96 183.993 1420.74 170.029 1460.98 169.957H1518.88C1521.53 169.957 1523.72 170.96 1525.44 172.965C1527.23 174.97 1528.12 177.298 1528.12 179.947V314.117C1528.12 316.91 1527.12 319.273 1525.12 321.207C1523.11 323.069 1520.71 324 1517.92 324H1497.72C1494.79 324 1492.35 323.069 1490.42 321.207C1488.56 319.273 1487.62 316.839 1487.62 313.902V286.832H1411.25L1404.05 313.902C1403.33 316.839 1401.72 319.273 1399.22 321.207C1396.71 323.069 1394.06 324 1391.27 324H1370.11C1367.31 324 1365.31 323.212 1364.09 321.637C1362.87 319.99 1362.26 318.557 1362.26 317.34C1362.34 316.122 1362.48 315.048 1362.69 314.117ZM1419.2 256.432H1487.62V200.357H1457.01C1450.13 200.357 1444.12 202.327 1438.96 206.266C1433.88 210.133 1430.44 215.361 1428.65 221.949L1419.2 256.432ZM1558.85 314.117V180.162C1558.85 177.369 1559.85 174.97 1561.85 172.965C1563.86 170.96 1566.26 169.957 1569.05 169.957H1589.03C1591.97 169.957 1594.4 170.96 1596.34 172.965C1598.34 174.97 1599.34 177.369 1599.34 180.162V313.902C1599.34 316.695 1598.31 319.094 1596.23 321.1C1594.22 323.033 1591.82 324 1589.03 324H1569.05C1566.26 324 1563.86 323.069 1561.85 321.207C1559.85 319.273 1558.85 316.91 1558.85 314.117Z" fill="#8FF4F5"/>
<defs>
<filter id="filter0_d_25_2" x="243.878" y="134.269" width="225.779" height="185.699" filterUnits="userSpaceOnUse" color-interpolation-filters="sRGB">
<feFlood flood-opacity="0" result="BackgroundImageFix"/>
<feColorMatrix in="SourceAlpha" type="matrix" values="0 0 0 0 0 0 0 0 0 0 0 0 0 0 0 0 0 0 127 0" result="hardAlpha"/>
<feOffset dx="4" dy="4"/>
<feGaussianBlur stdDeviation="4"/>
<feComposite in2="hardAlpha" operator="out"/>
<feColorMatrix type="matrix" values="0 0 0 0 0 0 0 0 0 0 0 0 0 0 0 0 0 0 0.25 0"/>
<feBlend mode="normal" in2="BackgroundImageFix" result="effect1_dropShadow_25_2"/>
<feBlend mode="normal" in="SourceGraphic" in2="effect1_dropShadow_25_2" result="shape"/>
</filter>
<filter id="filter1_d_25_2" x="121" y="72" width="376" height="376" filterUnits="userSpaceOnUse" color-interpolation-filters="sRGB">
<feFlood flood-opacity="0" result="BackgroundImageFix"/>
<feColorMatrix in="SourceAlpha" type="matrix" values="0 0 0 0 0 0 0 0 0 0 0 0 0 0 0 0 0 0 127 0" result="hardAlpha"/>
<feOffset dx="4" dy="4"/>
<feGaussianBlur stdDeviation="4"/>
<feComposite in2="hardAlpha" operator="out"/>
<feColorMatrix type="matrix" values="0 0 0 0 0 0 0 0 0 0 0 0 0 0 0 0 0 0 0.25 0"/>
<feBlend mode="normal" in2="BackgroundImageFix" result="effect1_dropShadow_25_2"/>
<feBlend mode="normal" in="SourceGraphic" in2="effect1_dropShadow_25_2" result="shape"/>
</filter>
<filter id="filter2_d_25_2" x="69.822" y="246.811" width="233.704" height="86.0386" filterUnits="userSpaceOnUse" color-interpolation-filters="sRGB">
<feFlood flood-opacity="0" result="BackgroundImageFix"/>
<feColorMatrix in="SourceAlpha" type="matrix" values="0 0 0 0 0 0 0 0 0 0 0 0 0 0 0 0 0 0 127 0" result="hardAlpha"/>
<feOffset dx="4" dy="4"/>
<feGaussianBlur stdDeviation="4"/>
<feComposite in2="hardAlpha" operator="out"/>
<feColorMatrix type="matrix" values="0 0 0 0 0 0 0 0 0 0 0 0 0 0 0 0 0 0 0.25 0"/>
<feBlend mode="normal" in2="BackgroundImageFix" result="effect1_dropShadow_25_2"/>
<feBlend mode="normal" in="SourceGraphic" in2="effect1_dropShadow_25_2" result="shape"/>
</filter>
<filter id="filter3_d_25_2" x="124.973" y="296.954" width="193.672" height="77.0571" filterUnits="userSpaceOnUse" color-interpolation-filters="sRGB">
<feFlood flood-opacity="0" result="BackgroundImageFix"/>
<feColorMatrix in="SourceAlpha" type="matrix" values="0 0 0 0 0 0 0 0 0 0 0 0 0 0 0 0 0 0 127 0" result="hardAlpha"/>
<feOffset dx="4" dy="4"/>
<feGaussianBlur stdDeviation="4"/>
<feComposite in2="hardAlpha" operator="out"/>
<feColorMatrix type="matrix" values="0 0 0 0 0 0 0 0 0 0 0 0 0 0 0 0 0 0 0.25 0"/>
<feBlend mode="normal" in2="BackgroundImageFix" result="effect1_dropShadow_25_2"/>
<feBlend mode="normal" in="SourceGraphic" in2="effect1_dropShadow_25_2" result="shape"/>
</filter>
<linearGradient id="paint0_linear_25_2" x1="460.001" y1="136.999" x2="311.5" y2="264.999" gradientUnits="userSpaceOnUse">
<stop stop-color="#CBFBF8"/>
<stop offset="1" stop-color="#6AF0F4"/>
</linearGradient>
<linearGradient id="paint1_linear_25_2" x1="441" y1="129" x2="164" y2="369" gradientUnits="userSpaceOnUse">
<stop offset="0.00555556" stop-color="#BAFFFC"/>
<stop offset="1" stop-color="#339EEA"/>
</linearGradient>
<linearGradient id="paint2_linear_25_2" x1="284.5" y1="261" x2="79.5" y2="344" gradientUnits="userSpaceOnUse">
<stop stop-color="#66EFFA"/>
<stop offset="1" stop-color="#2B6AC7"/>
</linearGradient>
<linearGradient id="paint3_linear_25_2" x1="284.5" y1="306" x2="79.4999" y2="389" gradientUnits="userSpaceOnUse">
<stop stop-color="#66EFFA"/>
<stop offset="1" stop-color="#2B6AC7"/>
</linearGradient>
</defs>
</svg>
